<?xml version="1.0" encoding="UTF-8"?>
<svg width="300px" height="300px" viewBox="0 0 300 300" version="1.1" xmlns="http://www.w3.org/2000/svg" xmlns:xlink="http://www.w3.org/1999/xlink">
    <!-- Generator: Sketch 52.6 (67491) - http://www.bohemiancoding.com/sketch -->
    <title>Group</title>
    <desc>Created with Sketch.</desc>
    <g id="Page-1" stroke="none" stroke-width="1" fill="none" fill-rule="evenodd">
        <g id="Group">
            <rect id="Rectangle" fill="#FFB900" x="0" y="0" width="300" height="300" rx="44"></rect>
            <rect id="Rectangle" fill="#FFFFFF" x="217" y="237" width="8" height="41" rx="4"></rect>
            <rect id="Rectangle-Copy" fill="#FFFFFF" transform="translate(221.500000, 258.000000) rotate(-90.000000) translate(-221.500000, -258.000000) " x="217.5" y="237.5" width="8" height="41" rx="4"></rect>
            <g id="M-part" transform="translate(73.000000, 48.000000)" fill="#FFFFFF">
                <path d="M7.10542736e-15,173.039179 L7.10542736e-15,9.52624423 C0.621902707,3.17541474 3.64908803,-1.25076815e-14 9.08155597,-1.42108547e-14 C17.2302579,-1.42108547e-14 19.4049378,4.91505492 23.095824,17 C26.3198826,28.4545394 40.1686944,77.4545394 64.6422593,164 C66.8540958,170.026119 71.068235,173.039179 77.284677,173.039179 C77.284677,175.555413 77.284677,179.20902 77.284677,184 C65.980515,182.718906 59.1688191,179.065299 56.8495893,173.039179 C53.3707447,164 38.9398425,105.303522 19.6143047,40.4277627 C17.3096732,31.6766787 16.3921409,25.3488574 12.8548077,25.3488574 C10.976186,25.3488574 10.284677,27.5309625 10.284677,31.6766787 C10.284677,102.357929 12.0405247,105.760295 10.284677,173.039179 C10.284677,181.719068 9.08155597,184 4.82140796,184 C1.98130928,184 0.374173298,180.346393 7.10542736e-15,173.039179 Z" id="Path-9"></path>
            </g>
            <g id="M-part" transform="translate(188.000000, 140.000000) scale(-1, 1) translate(-188.000000, -140.000000) translate(149.000000, 48.000000)" fill="#FFFFFF">
                <path d="M7.10542736e-15,173.039179 L7.10542736e-15,9.52624423 C0.621902707,3.17541474 3.64908803,-1.25076815e-14 9.08155597,-1.42108547e-14 C17.2302579,-1.42108547e-14 19.4049378,4.91505492 23.095824,17 C26.3198826,28.4545394 40.1686944,77.4545394 64.6422593,164 C66.8540958,170.026119 71.068235,173.039179 77.284677,173.039179 C77.284677,175.555413 77.284677,179.20902 77.284677,184 C65.980515,182.718906 59.1688191,179.065299 56.8495893,173.039179 C53.3707447,164 38.9398425,105.303522 19.6143047,40.4277627 C17.3096732,31.6766787 16.3921409,25.3488574 12.8548077,25.3488574 C10.976186,25.3488574 10.284677,27.5309625 10.284677,31.6766787 C10.284677,102.357929 12.0405247,105.760295 10.284677,173.039179 C10.284677,181.719068 9.08155597,184 4.82140796,184 C1.98130928,184 0.374173298,180.346393 7.10542736e-15,173.039179 Z" id="Path-9"></path>
            </g>
        </g>
    </g>
</svg>