<svg width="300" height="300" viewBox="0 0 300 300" fill="none" xmlns="http://www.w3.org/2000/svg">
<rect width="300" height="300" rx="59" fill="#FFC52E"/>
<path d="M25 223.455C13.9543 223.455 5 214.5 5 203.455V97.7443C5 86.8398 13.8398 78 24.7443 78V78C35.6488 78 44.4886 86.8398 44.4886 97.7443V171.636C44.4886 182.682 53.4429 191.636 64.4886 191.636H87.3864C96.1727 191.636 103.295 198.759 103.295 207.545V207.545C103.295 216.332 96.1727 223.455 87.3864 223.455H25Z" fill="white"/>
<path d="M102.932 109.818C94.1455 109.818 87.0227 102.695 87.0227 93.9091V93.9091C87.0227 85.1227 94.1455 78 102.932 78H197.534C206.32 78 213.443 85.1227 213.443 93.9091V93.9091C213.443 102.695 206.32 109.818 197.534 109.818H189.693C178.647 109.818 169.693 118.772 169.693 129.818V203.994C169.693 214.742 160.981 223.455 150.233 223.455V223.455C139.485 223.455 130.773 214.742 130.773 203.994V129.818C130.773 118.772 121.818 109.818 110.773 109.818H102.932Z" fill="white"/>
<circle cx="212" cy="206" r="17" fill="white"/>
</svg>
